<svg xmlns="http://www.w3.org/2000/svg" >
<symbol viewBox="0 0 100 100" id="mercedes">
    <path d="M50 14C30.129581 14 14 30.129595 14 50C14 69.870405 30.129581 86 50 86C69.870419 86 86 69.870405 86 50C86 30.129595 69.870419 14 50 14 z M 50 16C68.78954 16 84 31.210473 84 50C84 68.789527 68.78954 84 50 84C31.21046 84 16 68.789527 16 50C16 31.210473 31.21046 16 50 16 z M 50 21C33.995577 21 21 33.995588 21 50C21 66.004412 33.995577 79 50 79C66.004423 79 79 66.004412 79 50C79 33.995588 66.004423 21 50 21 z M 49.345703 23.015625L43.869141 46.966797L26.216797 62.798828C24.165058 58.990729 23 54.633074 23 50C23 35.295884 34.726032 23.363553 49.345703 23.015625 z M 50.65625 23.015625C65.275013 23.36457 77 35.296539 77 50C77 54.661109 75.823001 59.044711 73.748047 62.869141L56.238281 46.96875L50.65625 23.015625 z M 50.5 26.744141L55.207031 46.955078L50.5 49.207031L50.5 41.5 A 0.50005 0.50005 0 0 0 49.992188 40.992188 A 0.50005 0.50005 0 0 0 49.5 41.5L49.5 49.201172L44.896484 46.957031L49.5 26.833984L49.5 36 A 0.50005 0.50005 0 1 0 50.5 36L50.5 26.744141 z M 55.699219 47.828125L70.669922 61.423828L66.751953 59.148438 A 0.50005 0.50005 0 0 0 66.464844 59.078125 A 0.50005 0.50005 0 0 0 66.248047 60.013672L69.613281 61.966797L50.5 55.992188L50.5 50.314453L55.699219 47.828125 z M 44.404297 47.830078L48.929688 50.035156L46.689453 51.316406 A 0.50005 0.50005 0 1 0 47.185547 52.183594L49.5 50.861328L49.5 55.990234L30.021484 61.992188L43.248047 54.433594 A 0.50005 0.50005 0 0 0 43.025391 53.496094 A 0.50005 0.50005 0 0 0 42.751953 53.566406L29.685547 61.03125L44.404297 47.830078 z M 55.464844 52.691406 A 0.50005 0.50005 0 0 0 55.248047 53.626953L62.998047 58.126953 A 0.50063738 0.50063738 0 1 0 63.501953 57.261719L55.751953 52.761719 A 0.50005 0.50005 0 0 0 55.464844 52.691406 z M 49.998047 56.882812L73.041016 64.087891C68.2978 71.834951 59.758615 77 50 77C40.203307 77 31.634273 71.795535 26.902344 63.998047L49.998047 56.882812 z"/>
</symbol>
<symbol viewBox="0 0 32 32" id="facebook">
    <path d="M19.253906 2C15.311906 2 13 4.0821719 13 8.8261719L13 13L8 13L8 18L13 18L13 30L18 30L18 18L22 18L23 13L18 13L18 9.671875C18 7.884875 18.582766 7 20.259766 7L23 7L23 2.2050781C22.526 2.1410781 21.144906 2 19.253906 2 z" />
</symbol>
<symbol viewBox="0 0 32 32" id="twitter">
    <path d="M28 8.558594C27.117188 8.949219 26.167969 9.214844 25.171875 9.332031C26.1875 8.722656 26.96875 7.757813 27.335938 6.609375C26.386719 7.171875 25.332031 7.582031 24.210938 7.804688C23.3125 6.847656 22.03125 6.246094 20.617188 6.246094C17.898438 6.246094 15.691406 8.453125 15.691406 11.171875C15.691406 11.558594 15.734375 11.933594 15.820313 12.292969C11.726563 12.089844 8.097656 10.128906 5.671875 7.148438C5.246094 7.875 5.003906 8.722656 5.003906 9.625C5.003906 11.332031 5.871094 12.839844 7.195313 13.722656C6.386719 13.695313 5.628906 13.476563 4.964844 13.105469C4.964844 13.128906 4.964844 13.148438 4.964844 13.167969C4.964844 15.554688 6.660156 17.546875 8.914063 17.996094C8.5 18.109375 8.066406 18.171875 7.617188 18.171875C7.300781 18.171875 6.988281 18.140625 6.691406 18.082031C7.316406 20.039063 9.136719 21.460938 11.289063 21.503906C9.605469 22.824219 7.480469 23.609375 5.175781 23.609375C4.777344 23.609375 4.386719 23.585938 4 23.539063C6.179688 24.9375 8.765625 25.753906 11.546875 25.753906C20.605469 25.753906 25.558594 18.25 25.558594 11.742188C25.558594 11.53125 25.550781 11.316406 25.542969 11.105469C26.503906 10.410156 27.339844 9.542969 28 8.558594Z"/>
</symbol>
<symbol viewBox="0 0 32 32" id="instagram">
    <path d="M11.46875 5C7.917969 5 5 7.914063 5 11.46875L5 20.53125C5 24.082031 7.914063 27 11.46875 27L20.53125 27C24.082031 27 27 24.085938 27 20.53125L27 11.46875C27 7.917969 24.085938 5 20.53125 5 Z M 11.46875 7L20.53125 7C23.003906 7 25 8.996094 25 11.46875L25 20.53125C25 23.003906 23.003906 25 20.53125 25L11.46875 25C8.996094 25 7 23.003906 7 20.53125L7 11.46875C7 8.996094 8.996094 7 11.46875 7 Z M 21.90625 9.1875C21.402344 9.1875 21 9.589844 21 10.09375C21 10.597656 21.402344 11 21.90625 11C22.410156 11 22.8125 10.597656 22.8125 10.09375C22.8125 9.589844 22.410156 9.1875 21.90625 9.1875 Z M 16 10C12.699219 10 10 12.699219 10 16C10 19.300781 12.699219 22 16 22C19.300781 22 22 19.300781 22 16C22 12.699219 19.300781 10 16 10 Z M 16 12C18.222656 12 20 13.777344 20 16C20 18.222656 18.222656 20 16 20C13.777344 20 12 18.222656 12 16C12 13.777344 13.777344 12 16 12Z" />
</symbol>
</svg>