<svg width="366" height="12" fill="none" xmlns="http://www.w3.org/2000/svg"><g style="mix-blend-mode:screen" filter="url(#a)"><path d="M363 6.019C363 7.659 282.395 9 182.963 9 83.605 9 3 7.658 3 6.019 3 4.342 83.605 3 182.963 3 282.395 3 363 4.342 363 6.019Z" fill="url(#b)" style="mix-blend-mode:screen"/></g><g style="mix-blend-mode:screen" filter="url(#c)"><path d="M220.58 5.938c0 .504-16.928.916-37.79.916S145 6.442 145 5.938C145 5.412 161.928 5 182.79 5s37.79.412 37.79.938Z" fill="#fff" style="mix-blend-mode:screen"/></g><defs><filter id="a" x="0" y="0" width="366" height="12" filterUnits="userSpaceOnUse" color-interpolation-filters="sRGB"><feFlood flood-opacity="0" result="BackgroundImageFix"/><feBlend in="SourceGraphic" in2="BackgroundImageFix" result="shape"/><feGaussianBlur stdDeviation="1.5" result="effect1_foregroundBlur_307_2027"/></filter><filter id="c" x="143" y="3" width="79.58" height="5.854" filterUnits="userSpaceOnUse" color-interpolation-filters="sRGB"><feFlood flood-opacity="0" result="BackgroundImageFix"/><feBlend in="SourceGraphic" in2="BackgroundImageFix" result="shape"/><feGaussianBlur stdDeviation="1" result="effect1_foregroundBlur_307_2027"/></filter><radialGradient id="b" cx="0" cy="0" r="1" gradientUnits="userSpaceOnUse" gradientTransform="matrix(180.037 0 0 91.2298 182.963 6.019)"><stop offset=".001" stop-color="#EAD4F3"/><stop offset=".107" stop-color="#D89DF3"/><stop offset=".191" stop-color="#D8A3EF"/><stop offset=".389" stop-color="#D997F6"/></radialGradient></defs></svg>